<svg width="99" height="38" fill="none" xmlns="http://www.w3.org/2000/svg"><path d="m10.68 0 7.2 7.22a7.85 7.85 0 0 1 2.3 5.51v12.54a7.8 7.8 0 0 1-2.28 5.52L10.69 38l-4.75-4.75L19.07 20.1a1.58 1.58 0 0 0 0-2.22L5.94 4.75 10.68 0ZM0 10.68l4.75-4.74a18.47 18.47 0 0 1 0 26.12L0 27.31a11.75 11.75 0 0 0 0-16.63ZM35.5 9.48h-5.77v19h5.7c6.07 0 9.9-3.62 9.9-9.48.04-5.9-3.73-9.52-9.84-9.52Zm-.04 16.45h-2.6V12.07h2.6c4.25 0 6.66 2.58 6.66 6.93 0 4.3-2.42 6.93-6.66 6.93Zm16.92-11.48c-3.56 0-5.7 1.96-5.8 4.62h3c.07-1.55 1.07-2.38 2.76-2.38 1.73 0 2.8.96 2.8 2.8v.4l-3.49.35c-3.07.34-5.52 1.38-5.52 4.2 0 2.52 2 4.32 4.87 4.32 2.07 0 3.62-1.07 4.17-2.97h.07v2.7h2.9v-8.46c-.03-3.69-2.24-5.58-5.76-5.58Zm2.72 8.03c0 2.62-1.24 4.07-3.38 4.07-1.31 0-2.48-.76-2.48-2.03 0-1.31 1.03-1.97 2.86-2.18l3-.34v.48Zm7.5-5.07a3.94 3.94 0 0 1 4.03-2.96c3.04 0 4.53 2.07 4.5 5.1v8.93h-3.01v-8.07c0-2.55-.93-3.72-2.76-3.72-1.87 0-2.77 1.27-2.77 3.51v8.28h-3V14.72h2.94v2.7h.06Zm16.53 9.14c-2.28 0-3.55-2.03-3.55-4.93 0-2.86 1.17-4.93 3.42-4.93 1.62 0 2.76 1.03 3.07 2.8h3.04c-.52-3.25-2.94-5-6.18-5-4.04 0-6.53 3.44-6.53 7.16 0 3.8 2.59 7.18 6.63 7.18 3.21 0 5.66-1.83 6.21-5.07h-3.07c-.3 1.72-1.45 2.79-3.04 2.79Zm7.01-4.93c0-3.83 2.35-7.17 6.46-7.17 4.1 0 6.8 3.34 6.35 8.13h-9.84c.14 2.52 1.59 3.97 3.7 3.97 1.8 0 2.55-1.2 2.9-2.31h3c-.55 2.72-2.73 4.55-6.08 4.55-4.1 0-6.49-3.34-6.49-7.17Zm6.46-4.93c-2 0-3.21 1.41-3.42 3.65h6.8c-.17-2.2-1.38-3.65-3.38-3.65Z" fill="#000"/></svg>